<svg width="1849" height="69" viewBox="0 0 1849 69" fill="none" xmlns="http://www.w3.org/2000/svg">
<path d="M18.6419 17.9812C25.1061 21.5324 30.9159 26.6577 33.5612 33.9919C37.8585 45.9067 47.0299 53.153 58.2414 55.0966C49.6949 62.6462 36.978 59.5204 24.8922 51.1771C11.145 41.6869 4.59582 27.3373 11.7343 16.9968C12.1461 16.4002 12.5691 15.839 13.0028 15.3122C14.8727 16.0723 16.7759 16.9561 18.6419 17.9812ZM48.3593 17.1835C61.9699 26.5795 69.7146 39.0149 61.7612 51.0031C50.7476 50.0929 41.8419 43.6454 37.8078 32.4603C34.6537 23.7154 27.8215 17.8734 20.8155 14.0245C19.3999 13.2468 17.9687 12.5457 16.5474 11.9141C25.2355 5.51183 36.8956 9.2697 48.3593 17.1835Z" fill="#4E2D18"/>
<path d="M356.625 17.9812C363.089 21.5324 368.899 26.6577 371.545 33.9919C375.842 45.9067 385.013 53.153 396.225 55.0966C387.678 62.6462 374.961 59.5204 362.876 51.1771C349.128 41.6869 342.579 27.3373 349.718 16.9968C350.129 16.4002 350.552 15.839 350.986 15.3122C352.856 16.0723 354.759 16.9561 356.625 17.9812ZM386.343 17.1835C399.953 26.5795 407.698 39.0149 399.745 51.0031C388.731 50.0929 379.825 43.6454 375.791 32.4603C372.637 23.7154 365.805 17.8734 358.799 14.0245C357.383 13.2468 355.952 12.5457 354.531 11.9141C363.219 5.51183 374.879 9.2697 386.343 17.1835Z" fill="#4E2D18"/>
<path d="M694.922 17.9812C701.386 21.5324 707.196 26.6577 709.841 33.9919C714.139 45.9067 723.31 53.153 734.522 55.0966C725.975 62.6462 713.258 59.5204 701.172 51.1771C687.425 41.6869 680.876 27.3373 688.015 16.9968C688.426 16.4002 688.849 15.839 689.283 15.3122C691.153 16.0723 693.056 16.9561 694.922 17.9812ZM724.64 17.1835C738.25 26.5795 745.995 39.0149 738.041 51.0031C727.028 50.0929 718.122 43.6454 714.088 32.4603C710.934 23.7154 704.102 17.8734 697.096 14.0245C695.68 13.2468 694.249 12.5457 692.828 11.9141C701.516 5.51183 713.176 9.2697 724.64 17.1835Z" fill="#4E2D18"/>
<path d="M1033.21 17.9812C1039.67 21.5324 1045.48 26.6577 1048.13 33.9919C1052.43 45.9067 1061.6 53.153 1072.81 55.0966C1064.26 62.6462 1051.55 59.5204 1039.46 51.1771C1025.71 41.6869 1019.16 27.3373 1026.3 16.9968C1026.71 16.4002 1027.14 15.839 1027.57 15.3122C1029.44 16.0723 1031.34 16.9561 1033.21 17.9812ZM1062.93 17.1835C1076.54 26.5795 1084.28 39.0149 1076.33 51.0031C1065.31 50.0929 1056.41 43.6454 1052.38 32.4603C1049.22 23.7154 1042.39 17.8734 1035.38 14.0245C1033.97 13.2468 1032.54 12.5457 1031.11 11.9141C1039.8 5.51183 1051.46 9.2697 1062.93 17.1835Z" fill="#4E2D18"/>
<path d="M1540.73 17.9812C1547.19 21.5324 1553 26.6577 1555.65 33.9919C1559.95 45.9067 1569.12 53.153 1580.33 55.0966C1571.78 62.6462 1559.07 59.5204 1546.98 51.1771C1533.23 41.6869 1526.68 27.3373 1533.82 16.9968C1534.23 16.4002 1534.66 15.839 1535.09 15.3122C1536.96 16.0723 1538.86 16.9561 1540.73 17.9812ZM1570.45 17.1835C1584.06 26.5795 1591.8 39.0149 1583.85 51.0031C1572.84 50.0929 1563.93 43.6454 1559.9 32.4603C1556.74 23.7154 1549.91 17.8734 1542.9 14.0245C1541.49 13.2468 1540.06 12.5457 1538.64 11.9141C1547.32 5.51183 1558.98 9.2697 1570.45 17.1835Z" fill="#4E2D18"/>
<path d="M187.848 17.9812C194.312 21.5324 200.122 26.6577 202.767 33.9919C207.065 45.9067 216.236 53.153 227.447 55.0966C218.901 62.6462 206.184 59.5204 194.098 51.1771C180.351 41.6869 173.802 27.3373 180.94 16.9968C181.352 16.4002 181.775 15.839 182.209 15.3122C184.079 16.0723 185.982 16.9561 187.848 17.9812ZM217.565 17.1835C231.176 26.5795 238.921 39.0149 230.967 51.0031C219.954 50.0929 211.048 43.6454 207.014 32.4603C203.86 23.7154 197.028 17.8734 190.022 14.0245C188.606 13.2468 187.175 12.5457 185.753 11.9141C194.442 5.51183 206.102 9.2697 217.565 17.1835Z" fill="#4E2D18"/>
<path d="M525.832 17.9812C532.297 21.5324 538.106 26.6577 540.752 33.9919C545.049 45.9067 554.22 53.153 565.432 55.0966C556.885 62.6462 544.168 59.5204 532.083 51.1771C518.335 41.6869 511.786 27.3373 518.925 16.9968C519.337 16.4002 519.76 15.839 520.193 15.3122C522.063 16.0723 523.966 16.9561 525.832 17.9812ZM555.55 17.1835C569.16 26.5795 576.905 39.0149 568.952 51.0031C557.938 50.0929 549.032 43.6454 544.998 32.4603C541.844 23.7154 535.012 17.8734 528.006 14.0245C526.59 13.2468 525.159 12.5457 523.738 11.9141C532.426 5.51183 544.086 9.2697 555.55 17.1835Z" fill="#4E2D18"/>
<path d="M864.129 17.9812C870.593 21.5324 876.403 26.6577 879.048 33.9919C883.346 45.9067 892.517 53.153 903.729 55.0966C895.182 62.6462 882.465 59.5204 870.38 51.1771C856.632 41.6869 850.083 27.3373 857.222 16.9968C857.633 16.4002 858.056 15.839 858.49 15.3122C860.36 16.0723 862.263 16.9561 864.129 17.9812ZM893.847 17.1835C907.457 26.5795 915.202 39.0149 907.248 51.0031C896.235 50.0929 887.329 43.6454 883.295 32.4603C880.141 23.7154 873.309 17.8734 866.303 14.0245C864.887 13.2468 863.456 12.5457 862.035 11.9141C870.723 5.51183 882.383 9.2697 893.847 17.1835Z" fill="#4E2D18"/>
<path d="M1371.64 17.9812C1378.11 21.5324 1383.91 26.6577 1386.56 33.9919C1390.86 45.9067 1400.03 53.153 1411.24 55.0966C1402.69 62.6462 1389.98 59.5204 1377.89 51.1771C1364.14 41.6869 1357.59 27.3373 1364.73 16.9968C1365.15 16.4002 1365.57 15.839 1366 15.3122C1367.87 16.0723 1369.77 16.9561 1371.64 17.9812ZM1401.36 17.1835C1414.97 26.5795 1422.71 39.0149 1414.76 51.0031C1403.75 50.0929 1394.84 43.6454 1390.81 32.4603C1387.65 23.7154 1380.82 17.8734 1373.81 14.0245C1372.4 13.2468 1370.97 12.5457 1369.55 11.9141C1378.23 5.51183 1389.89 9.2697 1401.36 17.1835Z" fill="#4E2D18"/>
<path d="M1202.41 17.9812C1208.88 21.5324 1214.69 26.6577 1217.33 33.9919C1221.63 45.9067 1230.8 53.153 1242.01 55.0966C1233.47 62.6462 1220.75 59.5204 1208.66 51.1771C1194.92 41.6869 1188.37 27.3373 1195.51 16.9968C1195.92 16.4002 1196.34 15.839 1196.78 15.3122C1198.65 16.0723 1200.55 16.9561 1202.41 17.9812ZM1232.13 17.1835C1245.74 26.5795 1253.49 39.0149 1245.53 51.0031C1234.52 50.0929 1225.61 43.6454 1221.58 32.4603C1218.43 23.7154 1211.59 17.8734 1204.59 14.0245C1203.17 13.2468 1201.74 12.5457 1200.32 11.9141C1209.01 5.51183 1220.67 9.2697 1232.13 17.1835Z" fill="#4E2D18"/>
<path d="M1709.94 17.9812C1716.4 21.5324 1722.21 26.6577 1724.86 33.9919C1729.15 45.9067 1738.32 53.153 1749.54 55.0966C1740.99 62.6462 1728.27 59.5204 1716.19 51.1771C1702.44 41.6869 1695.89 27.3373 1703.03 16.9968C1703.44 16.4002 1703.86 15.839 1704.3 15.3122C1706.17 16.0723 1708.07 16.9561 1709.94 17.9812ZM1739.65 17.1835C1753.26 26.5795 1761.01 39.0149 1753.06 51.0031C1742.04 50.0929 1733.14 43.6454 1729.1 32.4603C1725.95 23.7154 1719.12 17.8734 1712.11 14.0245C1710.69 13.2468 1709.26 12.5457 1707.84 11.9141C1716.53 5.51183 1728.19 9.2697 1739.65 17.1835Z" fill="#4E2D18"/>
<path d="M139.052 17.9812C132.588 21.5324 126.778 26.6577 124.133 33.9919C119.836 45.9067 110.664 53.153 99.4529 55.0966C107.999 62.6462 120.716 59.5204 132.802 51.1771C146.549 41.6869 153.099 27.3373 145.96 16.9968C145.548 16.4002 145.125 15.839 144.692 15.3122C142.822 16.0723 140.918 16.9561 139.052 17.9812ZM109.335 17.1835C95.7244 26.5795 87.9797 39.0149 95.9332 51.0031C106.947 50.0929 115.852 43.6454 119.887 32.4603C123.041 23.7154 129.873 17.8734 136.879 14.0245C138.294 13.2468 139.726 12.5457 141.147 11.9141C132.459 5.51183 120.799 9.2697 109.335 17.1835Z" fill="#4E2D18"/>
<path d="M477.037 17.9812C470.573 21.5324 464.763 26.6577 462.118 33.9919C457.82 45.9067 448.649 53.153 437.437 55.0966C445.984 62.6462 458.701 59.5204 470.787 51.1771C484.534 41.6869 491.083 27.3373 483.944 16.9968C483.533 16.4002 483.11 15.839 482.676 15.3122C480.806 16.0723 478.903 16.9561 477.037 17.9812ZM447.319 17.1835C433.709 26.5795 425.964 39.0149 433.918 51.0031C444.931 50.0929 453.837 43.6454 457.871 32.4603C461.025 23.7154 467.857 17.8734 474.863 14.0245C476.279 13.2468 477.71 12.5457 479.131 11.9141C470.443 5.51183 458.783 9.2697 447.319 17.1835Z" fill="#4E2D18"/>
<path d="M815.333 17.9812C808.869 21.5324 803.059 26.6577 800.413 33.9919C796.116 45.9067 786.945 53.153 775.733 55.0966C784.28 62.6462 796.997 59.5204 809.082 51.1771C822.83 41.6869 829.379 27.3373 822.24 16.9968C821.829 16.4002 821.406 15.839 820.972 15.3122C819.102 16.0723 817.199 16.9561 815.333 17.9812ZM785.615 17.1835C772.005 26.5795 764.26 39.0149 772.213 51.0031C783.227 50.0929 792.133 43.6454 796.167 32.4603C799.321 23.7154 806.153 17.8734 813.159 14.0245C814.575 13.2468 816.006 12.5457 817.427 11.9141C808.739 5.51183 797.079 9.2697 785.615 17.1835Z" fill="#4E2D18"/>
<path d="M1153.62 17.9812C1147.16 21.5324 1141.35 26.6577 1138.7 33.9919C1134.4 45.9067 1125.23 53.153 1114.02 55.0966C1122.57 62.6462 1135.28 59.5204 1147.37 51.1771C1161.12 41.6869 1167.67 27.3373 1160.53 16.9968C1160.12 16.4002 1159.69 15.839 1159.26 15.3122C1157.39 16.0723 1155.49 16.9561 1153.62 17.9812ZM1123.9 17.1835C1110.29 26.5795 1102.55 39.0149 1110.5 51.0031C1121.52 50.0929 1130.42 43.6454 1134.45 32.4603C1137.61 23.7154 1144.44 17.8734 1151.45 14.0245C1152.86 13.2468 1154.29 12.5457 1155.72 11.9141C1147.03 5.51183 1135.37 9.2697 1123.9 17.1835Z" fill="#4E2D18"/>
<path d="M1661.14 17.9812C1654.68 21.5324 1648.87 26.6577 1646.22 33.9919C1641.93 45.9067 1632.75 53.153 1621.54 55.0966C1630.09 62.6462 1642.81 59.5204 1654.89 51.1771C1668.64 41.6869 1675.19 27.3373 1668.05 16.9968C1667.64 16.4002 1667.22 15.839 1666.78 15.3122C1664.91 16.0723 1663.01 16.9561 1661.14 17.9812ZM1631.42 17.1835C1617.81 26.5795 1610.07 39.0149 1618.02 51.0031C1629.04 50.0929 1637.94 43.6454 1641.98 32.4603C1645.13 23.7154 1651.96 17.8734 1658.97 14.0245C1660.38 13.2468 1661.82 12.5457 1663.24 11.9141C1654.55 5.51183 1642.89 9.2697 1631.42 17.1835Z" fill="#4E2D18"/>
<path d="M308.26 17.9812C301.796 21.5324 295.986 26.6577 293.341 33.9919C289.044 45.9067 279.872 53.153 268.661 55.0966C277.207 62.6462 289.924 59.5204 302.01 51.1771C315.757 41.6869 322.307 27.3373 315.168 16.9968C314.756 16.4002 314.333 15.839 313.9 15.3122C312.03 16.0723 310.126 16.9561 308.26 17.9812ZM278.543 17.1835C264.932 26.5795 257.188 39.0149 265.141 51.0031C276.155 50.0929 285.06 43.6454 289.095 32.4603C292.249 23.7154 299.081 17.8734 306.087 14.0245C307.502 13.2468 308.934 12.5457 310.355 11.9141C301.667 5.51183 290.007 9.2697 278.543 17.1835Z" fill="#4E2D18"/>
<path d="M646.244 17.9812C639.78 21.5324 633.97 26.6577 631.325 33.9919C627.027 45.9067 617.856 53.153 606.644 55.0966C615.191 62.6462 627.908 59.5204 639.994 51.1771C653.741 41.6869 660.29 27.3373 653.151 16.9968C652.74 16.4002 652.317 15.839 651.883 15.3122C650.013 16.0723 648.11 16.9561 646.244 17.9812ZM616.526 17.1835C602.916 26.5795 595.171 39.0149 603.125 51.0031C614.138 50.0929 623.044 43.6454 627.078 32.4603C630.232 23.7154 637.064 17.8734 644.07 14.0245C645.486 13.2468 646.917 12.5457 648.338 11.9141C639.65 5.51183 627.99 9.2697 616.526 17.1835Z" fill="#4E2D18"/>
<path d="M984.541 17.9812C978.077 21.5324 972.267 26.6577 969.621 33.9919C965.324 45.9067 956.153 53.153 944.941 55.0966C953.488 62.6462 966.205 59.5204 978.29 51.1771C992.038 41.6869 998.587 27.3373 991.448 16.9968C991.037 16.4002 990.614 15.839 990.18 15.3122C988.31 16.0723 986.407 16.9561 984.541 17.9812ZM954.823 17.1835C941.213 26.5795 933.468 39.0149 941.421 51.0031C952.435 50.0929 961.341 43.6454 965.375 32.4603C968.529 23.7154 975.361 17.8734 982.367 14.0245C983.783 13.2468 985.214 12.5457 986.635 11.9141C977.947 5.51183 966.287 9.2697 954.823 17.1835Z" fill="#4E2D18"/>
<path d="M1492.05 17.9812C1485.59 21.5324 1479.78 26.6577 1477.13 33.9919C1472.84 45.9067 1463.67 53.153 1452.45 55.0966C1461 62.6462 1473.72 59.5204 1485.8 51.1771C1499.55 41.6869 1506.1 27.3373 1498.96 16.9968C1498.55 16.4002 1498.13 15.839 1497.69 15.3122C1495.82 16.0723 1493.92 16.9561 1492.05 17.9812ZM1462.34 17.1835C1448.73 26.5795 1440.98 39.0149 1448.93 51.0031C1459.95 50.0929 1468.85 43.6454 1472.89 32.4603C1476.04 23.7154 1482.87 17.8734 1489.88 14.0245C1491.3 13.2468 1492.73 12.5457 1494.15 11.9141C1485.46 5.51183 1473.8 9.2697 1462.34 17.1835Z" fill="#4E2D18"/>
<path d="M1322.83 17.9812C1316.36 21.5324 1310.55 26.6577 1307.91 33.9919C1303.61 45.9067 1294.44 53.153 1283.23 55.0966C1291.77 62.6462 1304.49 59.5204 1316.58 51.1771C1330.32 41.6869 1336.87 27.3373 1329.74 16.9968C1329.32 16.4002 1328.9 15.839 1328.47 15.3122C1326.6 16.0723 1324.69 16.9561 1322.83 17.9812ZM1293.11 17.1835C1279.5 26.5795 1271.76 39.0149 1279.71 51.0031C1290.72 50.0929 1299.63 43.6454 1303.66 32.4603C1306.82 23.7154 1313.65 17.8734 1320.65 14.0245C1322.07 13.2468 1323.5 12.5457 1324.92 11.9141C1316.23 5.51183 1304.57 9.2697 1293.11 17.1835Z" fill="#4E2D18"/>
<path d="M1830.35 17.9812C1823.89 21.5324 1818.08 26.6577 1815.43 33.9919C1811.13 45.9067 1801.96 53.153 1790.75 55.0966C1799.3 62.6462 1812.01 59.5204 1824.1 51.1771C1837.85 41.6869 1844.4 27.3373 1837.26 16.9968C1836.85 16.4002 1836.42 15.839 1835.99 15.3122C1834.12 16.0723 1832.22 16.9561 1830.35 17.9812ZM1800.63 17.1835C1787.02 26.5795 1779.28 39.0149 1787.23 51.0031C1798.24 50.0929 1807.15 43.6454 1811.18 32.4603C1814.34 23.7154 1821.17 17.8734 1828.18 14.0245C1829.59 13.2468 1831.02 12.5457 1832.44 11.9141C1823.76 5.51183 1812.1 9.2697 1800.63 17.1835Z" fill="#4E2D18"/>
</svg>
