<svg width="93" height="61" viewBox="0 0 93 61" fill="none" xmlns="http://www.w3.org/2000/svg">
<path d="M85.9395 8.11431C83.545 7.8756 80.5921 9.06466 78.0251 10.4783C79.2216 4.43262 79.6879 0.0935685 79.6879 0.0935685L0 -0.00012207C0 -0.00012207 2.92318 27.2284 12.9435 40.363C18.247 47.3144 22.3131 49.0635 23.9565 49.5014L55.7314 49.5951C57.3733 49.1564 61.4402 47.4074 66.7437 40.4567C66.818 40.3616 66.8864 40.2649 66.9578 40.169C67.261 40.5462 67.627 40.8682 68.0398 41.1208C69.8133 42.2154 75.9423 44.7646 79.1666 42.2154C82.3909 39.6663 92.229 28.5387 92.8745 22.7035C93.52 16.8682 91.7449 8.84455 85.9395 8.11431ZM86.9062 23.6085C86.5203 27.0968 80.6412 33.7455 78.713 35.2707C76.7848 36.7959 73.1224 35.2707 72.062 34.6171C71.5615 34.3132 71.1856 33.8411 71.0016 33.2852C73.3529 28.1176 75.2009 22.7354 76.5201 17.2133C78.2802 16.0622 80.8256 14.6954 82.7613 14.8887C86.2317 15.3252 87.2921 20.1209 86.9069 23.6085H86.9062Z" fill="#8B6341"/>
<path d="M0.0166016 52.0629C4.57872 57.0742 21.6433 60.799 41.9999 60.799C62.3566 60.799 79.4212 57.0742 83.9833 52.0629H0.0166016Z" fill="#8B6341"/>
</svg>
