<svg width="305" height="228" viewBox="0 0 305 228" fill="none" xmlns="http://www.w3.org/2000/svg">
<path d="M262.223 70.1791C273.56 60.2338 297.31 46.3105 301.606 70.1791C306.977 100.015 306.977 133.431 282.512 151.929C262.939 166.728 239.349 170.427 230 170.427L262.223 70.1791ZM285.026 89.2817C282.548 75.2187 268.85 83.4219 262.311 89.2817L243.725 148.349C249.117 148.349 262.724 146.169 274.013 137.45C288.124 126.55 288.124 106.861 285.026 89.2817Z" fill="#E5CAAB"/>
<path d="M131.874 0C204.706 0 263.749 23.743 263.749 53.0312C263.749 54.4155 263.615 55.787 263.356 57.1445C265.851 87.308 256.062 145.189 240.191 165.662C218.275 193.935 191.91 227.345 132.303 227.345C132.159 227.345 132.015 227.342 131.872 227.34C131.73 227.342 131.586 227.345 131.442 227.345C71.8359 227.345 45.4703 193.934 23.5537 165.662C7.68152 145.186 -2.10913 87.2941 0.388672 57.1338C0.131069 55.7799 8.94188e-06 54.4117 0 53.0312C0 23.743 59.042 5.97077e-05 131.874 0Z" fill="#E5CAAB"/>
<path d="M263.856 63.5449C264.829 94.8083 255.285 147.08 240.371 166.318C218.454 194.591 192.088 228 132.481 228C128.082 228 124.333 227.047 121.16 225.282C176.614 226.653 205.506 193.67 229.759 165.531C245.493 147.275 259.642 98.357 263.856 63.5449Z" fill="#D1B18D"/>
<ellipse cx="132.5" cy="66.5" rx="113.5" ry="55.5" fill="#4E2D18"/>
<path d="M132.5 11C181.762 11 223.692 26.3472 239.391 47.7959C219.261 32.2911 183.838 22 143.5 22C80.8157 22 30 46.8482 30 77.5C30 84.0631 32.3312 90.3591 36.6084 96.2031C25.4582 87.6143 19 77.4265 19 66.5C19 35.8482 69.8157 11 132.5 11Z" fill="#341D0E"/>
</svg>
