<svg width="60" height="41" viewBox="0 0 60 41" fill="none" xmlns="http://www.w3.org/2000/svg">
<path d="M55.4448 6.1223C53.9 5.9683 51.9949 6.73542 50.3388 7.64744C51.1107 3.74703 51.4115 0.947652 51.4115 0.947652L0 0.887207C0 0.887207 1.88592 18.4539 8.35062 26.9278C11.7722 31.4126 14.3955 32.541 15.4558 32.8235L35.9557 32.884C37.015 32.6009 39.6388 31.4726 43.0604 26.9883C43.1084 26.9269 43.1525 26.8645 43.1986 26.8026C43.3942 27.046 43.6303 27.2537 43.8966 27.4167C45.0409 28.1229 48.995 29.7675 51.0752 28.1229C53.1554 26.4783 59.5026 19.2992 59.919 15.5346C60.3354 11.77 59.1903 6.59342 55.4448 6.1223ZM56.0685 16.1185C55.8195 18.369 52.0266 22.6585 50.7826 23.6425C49.5386 24.6265 47.1758 23.6425 46.4916 23.2208C46.1687 23.0248 45.9262 22.7201 45.8075 22.3615C47.3245 19.0276 48.5167 15.5552 49.3678 11.9926C50.5034 11.2499 52.1456 10.3681 53.3944 10.4929C55.6334 10.7745 56.3175 13.8684 56.069 16.1185H56.0685Z" fill="#D9C5A7"/>
<path d="M0.0107422 34.4762C2.95404 37.7093 13.9635 40.1124 27.0968 40.1124C40.2301 40.1124 51.2395 37.7093 54.1828 34.4762H0.0107422Z" fill="#D9C5A7"/>
</svg>
