<svg width="71" height="70" viewBox="0 0 71 70" fill="none" xmlns="http://www.w3.org/2000/svg">
<path d="M35.2002 0C54.5302 0 70.2002 15.67 70.2002 35C70.2002 54.33 54.5302 70 35.2002 70C15.8702 70 0.200195 54.33 0.200195 35C0.200195 15.67 15.8702 0 35.2002 0ZM26.7432 14.3594C20.0182 14.3594 14.5586 19.819 14.5586 26.5439V43.3232C14.5587 50.1812 20.0183 55.6406 26.7432 55.6406H43.5225C50.3806 55.6406 55.8408 50.181 55.8408 43.4561V26.5439C55.8408 19.819 50.3803 14.3594 43.6553 14.3594H26.7432ZM35.2656 24.8789C40.7921 24.8789 45.3203 29.4735 45.3203 35C45.3203 40.5265 40.8587 45.1211 35.2656 45.1211C29.6062 45.1209 25.1455 40.5263 25.1455 35C25.1455 29.4737 29.6728 24.8791 35.2656 24.8789ZM35.1992 26.9229C30.7387 26.9231 27.1231 30.5394 27.123 35C27.123 39.4606 30.7386 43.0769 35.1992 43.0771C39.66 43.0771 43.2764 39.4608 43.2764 35C43.2763 30.5393 39.66 26.9229 35.1992 26.9229ZM46.4521 19.0195C47.4509 19.0195 48.5166 19.419 49.249 20.1514C49.9148 21.0168 50.3807 22.0159 50.3809 23.0811C50.3143 24.1463 49.9148 25.0791 49.249 25.8115C48.5832 26.5439 47.5841 26.9434 46.4521 26.9434C45.4534 26.9434 44.4543 26.5439 43.6553 25.8115C42.9229 25.0791 42.5234 24.1465 42.5234 23.0146C42.5235 21.883 42.9231 21.0176 43.6553 20.2188C44.3877 19.4197 45.3202 19.0195 46.4521 19.0195ZM46.418 21.5381C45.6888 21.5381 45.0713 22.1556 45.0713 22.8848C45.0714 23.6138 45.6889 24.2305 46.418 24.2305C47.147 24.2304 47.7635 23.6138 47.7637 22.8848C47.7637 22.1556 47.2031 21.5382 46.418 21.5381Z" fill="white"/>
</svg>
