<svg width="70" height="70" viewBox="0 0 70 70" fill="none" xmlns="http://www.w3.org/2000/svg">
<path d="M35 0C54.33 0 70 15.67 70 35C70 54.33 54.33 70 35 70C15.67 70 0 54.33 0 35C0 15.67 15.67 0 35 0ZM34.4932 6.08691C18.3595 6.08691 5.07233 19.0553 5.07227 35.2188C5.07227 47.9992 13.519 58.9008 25.2871 62.8477C26.8055 63.1295 27.2803 62.189 27.2803 61.5312C27.2803 60.8732 27.2804 58.9939 27.1855 56.457C19.0238 58.3365 17.3154 52.5098 17.3154 52.5098C15.9868 49.2208 13.9932 48.2812 13.9932 48.2812C11.3559 46.4159 14.0477 46.4015 14.0879 46.4014C17.0299 46.4953 18.6436 49.4092 18.6436 49.4092C21.206 53.9198 25.5722 52.6036 27.1855 51.7578C27.4703 49.8787 28.229 48.5633 29.083 47.8115C22.6296 47.1537 15.7022 44.6162 15.7021 33.5273C15.7021 30.3323 16.9351 27.7947 18.7383 25.8213C18.4534 25.1629 17.4103 22.1555 19.0234 18.1152C19.0478 18.1082 21.613 17.3821 27.1855 21.123C29.558 20.4653 32.0256 20.0889 34.5879 20.0889C37.1502 20.0889 39.7126 20.3713 41.9902 21.123C47.5459 17.4867 50.0184 18.1053 50.0566 18.1152C51.6699 22.0618 50.7215 25.1631 50.3418 25.8213C52.2399 27.7947 53.3789 30.4262 53.3789 33.5273C53.3789 44.6163 46.4506 47.1537 39.9971 47.8115C41.041 48.7513 41.9902 50.6305 41.9902 53.2617C41.9902 57.2086 41.8955 60.3103 41.8955 61.25C41.8957 62.0017 42.4653 62.8473 43.8887 62.5654C55.4667 58.7124 63.9129 47.9054 63.9131 35.0312C63.8182 19.0558 50.6267 6.08714 34.4932 6.08691Z" fill="white"/>
</svg>
