<svg width="60" height="40" viewBox="0 0 60 40" fill="none" xmlns="http://www.w3.org/2000/svg">
<path d="M55.4448 5.83116C53.9 5.67716 51.9949 6.44429 50.3388 7.3563C51.1107 3.45589 51.4115 0.656515 51.4115 0.656515L0 0.596069C0 0.596069 1.88592 18.1628 8.35062 26.6367C11.7722 31.1214 14.3955 32.2498 15.4558 32.5324L35.9557 32.5929C37.015 32.3098 39.6388 31.1814 43.0604 26.6971C43.1084 26.6357 43.1525 26.5734 43.1986 26.5115C43.3942 26.7548 43.6303 26.9626 43.8966 27.1256C45.0409 27.8318 48.995 29.4764 51.0752 27.8318C53.1554 26.1872 59.5026 19.0081 59.919 15.2435C60.3354 11.4788 59.1903 6.30228 55.4448 5.83116ZM56.0685 15.8273C55.8195 18.0779 52.0266 22.3674 50.7826 23.3513C49.5386 24.3353 47.1758 23.3513 46.4916 22.9296C46.1687 22.7336 45.9262 22.429 45.8075 22.0704C47.3245 18.7364 48.5167 15.2641 49.3678 11.7014C50.5034 10.9588 52.1456 10.077 53.3944 10.2017C55.6334 10.4833 56.3175 13.5773 56.069 15.8273H56.0685Z" fill="white"/>
<path d="M0.0107422 34.1851C2.95404 37.4181 13.9635 39.8212 27.0968 39.8212C40.2301 39.8212 51.2395 37.4181 54.1828 34.1851H0.0107422Z" fill="white"/>
</svg>

