<svg width="552" height="648" viewBox="0 0 552 648" fill="none" xmlns="http://www.w3.org/2000/svg">
<rect x="16.857" y="364.193" width="516.953" height="270.054" rx="15" transform="rotate(-0.430235 16.857 364.193)" fill="#5E4D42"/>
<path d="M517.377 12.9427C525.661 12.8805 532.427 19.5459 532.489 27.8298L534.759 330.148C534.822 338.432 528.156 345.199 519.872 345.261L32.9331 348.918C24.649 348.98 17.8832 342.315 17.821 334.03L15.55 31.712C15.4878 23.4281 22.1533 16.6623 30.4372 16.6L517.377 12.9427ZM480.226 62.6059L69.188 65.6925C63.6653 65.734 59.2211 70.2452 59.2626 75.7679L60.9537 300.879C60.9951 306.401 65.5054 310.845 71.028 310.804L482.067 307.717C487.589 307.676 492.033 303.165 491.991 297.642L490.301 72.5313C490.26 67.0087 485.749 62.5644 480.226 62.6059Z" fill="#8B7F77"/>
<path d="M513.167 19.5042C521.451 19.442 528.217 26.1066 528.279 34.3904L530.534 334.55C530.596 342.833 523.93 349.599 515.647 349.662L36.8151 353.258C28.5311 353.32 21.7644 346.654 21.7021 338.37L19.4486 38.2113C19.3866 29.9275 26.0519 23.1615 34.3358 23.0993L513.167 19.5042ZM480.227 62.606L69.1896 65.6926C63.6669 65.7341 59.2227 70.2453 59.2641 75.768L60.9552 300.879C60.9967 306.401 65.5069 310.846 71.0295 310.804L482.068 307.718C487.591 307.676 492.034 303.165 491.993 297.642L490.303 72.5314C490.261 67.0087 485.75 62.5645 480.227 62.606Z" fill="#584B46"/>
<rect x="17.3042" y="346.89" width="516.953" height="270.054" rx="15" transform="rotate(-0.430235 17.3042 346.89)" fill="#7B7067"/>
<rect x="204.521" y="517.176" width="147.569" height="80.4361" rx="15" transform="rotate(-0.430235 204.521 517.176)" fill="#6B6059"/>
<rect x="194.957" y="473.367" width="163.865" height="25.6571" rx="5" transform="rotate(-0.411839 194.957 473.367)" fill="#443C37"/>
<rect x="151.634" y="473.679" width="33.8634" height="25.6571" rx="5" transform="rotate(-0.411839 151.634 473.679)" fill="#443C37"/>
<rect x="217.789" y="441.559" width="33.8634" height="25.6571" rx="5" transform="rotate(-0.411839 217.789 441.559)" fill="#443C37"/>
<rect x="337.328" y="440.7" width="33.8634" height="25.6571" rx="5" transform="rotate(-0.411839 337.328 440.7)" fill="#443C37"/>
<rect x="217.56" y="409.917" width="33.8634" height="25.6571" rx="5" transform="rotate(-0.411839 217.56 409.917)" fill="#443C37"/>
<rect x="239.597" y="378.115" width="33.8634" height="25.6571" rx="5" transform="rotate(-0.411839 239.597 378.115)" fill="#443C37"/>
<rect x="337.099" y="409.058" width="33.8634" height="25.6571" rx="5" transform="rotate(-0.411839 337.099 409.058)" fill="#443C37"/>
<rect x="366.169" y="377.205" width="33.8634" height="25.6571" rx="5" transform="rotate(-0.411839 366.169 377.205)" fill="#443C37"/>
<rect x="177.943" y="441.846" width="33.8634" height="25.6571" rx="5" transform="rotate(-0.411839 177.943 441.846)" fill="#443C37"/>
<rect x="297.48" y="440.986" width="33.8634" height="25.6571" rx="5" transform="rotate(-0.411839 297.48 440.986)" fill="#443C37"/>
<rect x="447.718" y="471.55" width="33.8634" height="25.6571" rx="5" transform="rotate(-0.411839 447.718 471.55)" fill="#443C37"/>
<rect x="111.785" y="473.965" width="33.8634" height="25.6571" rx="5" transform="rotate(-0.411839 111.785 473.965)" fill="#443C37"/>
<rect x="138.093" y="442.132" width="33.8634" height="25.6571" rx="5" transform="rotate(-0.411839 138.093 442.132)" fill="#443C37"/>
<rect x="71.1734" y="442.613" width="60.9423" height="25.7833" rx="5" transform="rotate(-0.411839 71.1734 442.613)" fill="#443C37"/>
<rect x="420.533" y="440.102" width="60.9423" height="25.7833" rx="5" transform="rotate(-0.411839 420.533 440.102)" fill="#443C37"/>
<rect x="454.293" y="408.215" width="30.4712" height="25.7833" rx="5" transform="rotate(-0.411839 454.293 408.215)" fill="#443C37"/>
<rect x="72.2398" y="410.962" width="19.9234" height="25.7833" rx="5" transform="rotate(-0.411839 72.2398 410.962)" fill="#443C37"/>
<rect x="377.169" y="440.414" width="33.8634" height="25.6571" rx="5" transform="rotate(-0.411839 377.169 440.414)" fill="#443C37"/>
<rect x="257.632" y="441.273" width="33.8634" height="25.6571" rx="5" transform="rotate(-0.411839 257.632 441.273)" fill="#443C37"/>
<rect x="177.712" y="410.203" width="33.8634" height="25.6571" rx="5" transform="rotate(-0.411839 177.712 410.203)" fill="#443C37"/>
<rect x="197.408" y="378.418" width="33.8634" height="25.6571" rx="5" transform="rotate(-0.411839 197.408 378.418)" fill="#443C37"/>
<rect x="297.251" y="409.344" width="33.8634" height="25.6571" rx="5" transform="rotate(-0.411839 297.251 409.344)" fill="#443C37"/>
<rect x="323.98" y="377.508" width="33.8634" height="25.6571" rx="5" transform="rotate(-0.411839 323.98 377.508)" fill="#443C37"/>
<rect x="407.869" y="471.837" width="33.8634" height="25.6571" rx="5" transform="rotate(-0.411839 407.869 471.837)" fill="#443C37"/>
<rect x="71.939" y="474.252" width="33.8634" height="25.6571" rx="5" transform="rotate(-0.411839 71.939 474.252)" fill="#443C37"/>
<rect x="137.869" y="410.49" width="33.8634" height="25.6571" rx="5" transform="rotate(-0.411839 137.869 410.49)" fill="#443C37"/>
<rect x="155.218" y="378.721" width="33.8634" height="25.6571" rx="5" transform="rotate(-0.411839 155.218 378.721)" fill="#443C37"/>
<rect x="98.023" y="410.776" width="33.8634" height="25.6571" rx="5" transform="rotate(-0.411839 98.023 410.776)" fill="#443C37"/>
<rect x="113.029" y="379.024" width="33.8634" height="25.6571" rx="5" transform="rotate(-0.411839 113.029 379.024)" fill="#443C37"/>
<rect x="70.8394" y="379.328" width="33.8634" height="25.6571" rx="5" transform="rotate(-0.411839 70.8394 379.328)" fill="#443C37"/>
<rect x="376.943" y="408.771" width="33.8634" height="25.6571" rx="5" transform="rotate(-0.411839 376.943 408.771)" fill="#443C37"/>
<rect x="408.357" y="376.902" width="33.8634" height="25.6571" rx="5" transform="rotate(-0.411839 408.357 376.902)" fill="#443C37"/>
<rect x="416.787" y="408.485" width="33.8634" height="25.6571" rx="5" transform="rotate(-0.411839 416.787 408.485)" fill="#443C37"/>
<rect x="450.548" y="376.598" width="33.8634" height="25.6571" rx="5" transform="rotate(-0.411839 450.548 376.598)" fill="#443C37"/>
<rect x="257.406" y="409.631" width="33.8634" height="25.6571" rx="5" transform="rotate(-0.411839 257.406 409.631)" fill="#443C37"/>
<rect x="281.789" y="377.811" width="33.8634" height="25.6571" rx="5" transform="rotate(-0.411839 281.789 377.811)" fill="#443C37"/>
<rect x="368.021" y="472.123" width="33.8634" height="25.6571" rx="5" transform="rotate(-0.411839 368.021 472.123)" fill="#443C37"/>
<rect x="105.011" y="347.539" width="332.275" height="11.156" rx="5.57799" transform="rotate(-0.403448 105.011 347.539)" fill="#443C37"/>
</svg>
