<svg width="71" height="70" viewBox="0 0 71 70" fill="none" xmlns="http://www.w3.org/2000/svg">
<path d="M35.4004 0C54.7304 0 70.4004 15.67 70.4004 35C70.4004 54.33 54.7304 70 35.4004 70C16.0704 70 0.400391 54.33 0.400391 35C0.400391 15.67 16.0704 0 35.4004 0ZM18.502 15.2178C16.8993 15.2178 15.6173 16.4936 15.6172 18.0889V51.9111C15.6173 53.4426 16.8992 54.7822 18.502 54.7822H52.2881C53.8908 54.7822 55.1728 53.5064 55.1729 51.9111V18.0254C55.3011 16.4938 54.0188 15.2178 52.416 15.2178H18.502ZM27.3486 48.8477H21.5146V30.0225H27.3486V48.8477ZM42.543 29.5762C48.5053 29.5762 49.5957 33.4049 49.5957 38.6377V48.8477H43.6328V39.7227C43.6328 37.553 43.5689 34.6807 40.5557 34.6807C37.4786 34.6808 37.0303 37.1064 37.0303 39.5312V48.8477H31.1953V30.0225H36.9014V32.6387H36.9658C37.7993 31.1072 39.6583 29.5763 42.543 29.5762ZM24.4004 20.6416C26.2593 20.6418 27.7976 22.1731 27.7979 24.0234C27.7979 25.874 26.3876 27.4061 24.4004 27.4062C22.4771 27.4062 21.002 25.8741 21.002 24.0234C21.0022 22.173 22.5413 20.6416 24.4004 20.6416Z" fill="white"/>
</svg>
