<svg width="420" height="388" viewBox="0 0 420 388" fill="none" xmlns="http://www.w3.org/2000/svg">
<path d="M311.085 31.2383C326.944 120.141 341.366 175.381 365.673 245.586C330.534 180.44 311.709 138.845 286.251 62C198.365 107.701 149.504 129.103 63.1172 159.841C86.0754 240.108 105.742 282.131 148.188 353.853L369.584 256.773C374.587 270.951 379.998 285.81 385.902 301.723L74.8164 387.77C32.7391 285.696 14.9078 226.875 0 117.286C119.086 93.3367 187.202 74.5241 311.085 31.2383Z" fill="#D8C9C3"/>
<path d="M307.105 0C342.595 107.126 368.352 162.543 419.804 257.018L124.206 386.633C67.9752 291.619 41.9217 235.949 11.5078 129.615C125.949 88.8954 190.678 60.5433 307.105 0ZM286.252 62C198.366 107.701 149.505 129.103 63.1182 159.841C86.0763 240.108 105.743 282.131 148.189 353.853L371.323 256.012C332.484 184.697 313.041 142.865 286.252 62Z" fill="#EBE2E2"/>
</svg>
