<svg width="1920" height="143" viewBox="0 0 1920 143" fill="none" xmlns="http://www.w3.org/2000/svg">
<rect width="1920" height="106" fill="#112921"/>
<path d="M1869.5 7C1897.39 7 1920 29.6096 1920 57.5V92.5C1920 120.39 1897.39 143 1869.5 143C1841.61 143 1819 120.39 1819 92.5C1819 120.39 1796.39 143 1768.5 143C1740.61 143 1718 120.39 1718 92.5C1718 120.39 1695.39 143 1667.5 143C1639.61 143 1617 120.39 1617 92.5C1617 120.39 1594.39 143 1566.5 143C1538.61 143 1516 120.39 1516 92.5C1516 120.39 1493.39 143 1465.5 143C1437.61 143 1415 120.39 1415 92.5C1415 120.39 1392.39 143 1364.5 143C1336.61 143 1314 120.39 1314 92.5C1314 120.39 1291.39 143 1263.5 143C1235.61 143 1213 120.39 1213 92.5C1213 120.39 1190.39 143 1162.5 143C1134.61 143 1112 120.39 1112 92.5C1112 120.39 1089.39 143 1061.5 143C1033.61 143 1011 120.39 1011 92.5V92C1011 120.167 988.167 143 960 143C931.833 143 909 120.167 909 92V92.5C909 120.39 886.39 143 858.5 143C830.61 143 808 120.39 808 92.5C808 120.39 785.39 143 757.5 143C729.61 143 707 120.39 707 92.5C707 120.39 684.39 143 656.5 143C628.61 143 606 120.39 606 92.5C606 120.39 583.39 143 555.5 143C527.61 143 505 120.39 505 92.5C505 120.39 482.39 143 454.5 143C426.61 143 404 120.39 404 92.5C404 120.39 381.39 143 353.5 143C325.61 143 303 120.39 303 92.5C303 120.39 280.39 143 252.5 143C224.61 143 202 120.39 202 92.5C202 120.39 179.39 143 151.5 143C123.61 143 101 120.39 101 92.5C101 120.39 78.3904 143 50.5 143C22.6096 143 0 120.39 0 92.5V57.5C0 29.6096 22.6096 7 50.5 7C78.3904 7 101 29.6096 101 57.5C101 29.6096 123.61 7 151.5 7C179.39 7 202 29.6096 202 57.5C202 29.6096 224.61 7 252.5 7C280.39 7 303 29.6096 303 57.5C303 29.6096 325.61 7 353.5 7C381.39 7 404 29.6096 404 57.5C404 29.6096 426.61 7 454.5 7C482.39 7 505 29.6096 505 57.5C505 29.6096 527.61 7 555.5 7C583.39 7 606 29.6096 606 57.5C606 29.6096 628.61 7 656.5 7C684.39 7 707 29.6096 707 57.5C707 29.6096 729.61 7 757.5 7C785.39 7 808 29.6096 808 57.5C808 29.6096 830.61 7 858.5 7C886.39 7 909 29.6096 909 57.5V58C909 29.8335 931.833 7 960 7C988.167 7 1011 29.8335 1011 58V57.5C1011 29.6096 1033.61 7 1061.5 7C1089.39 7 1112 29.6096 1112 57.5C1112 29.6096 1134.61 7 1162.5 7C1190.39 7 1213 29.6096 1213 57.5C1213 29.6096 1235.61 7 1263.5 7C1291.39 7 1314 29.6096 1314 57.5C1314 29.6096 1336.61 7 1364.5 7C1392.39 7 1415 29.6096 1415 57.5C1415 29.6096 1437.61 7 1465.5 7C1493.39 7 1516 29.6096 1516 57.5C1516 29.6096 1538.61 7 1566.5 7C1594.39 7 1617 29.6096 1617 57.5C1617 29.6096 1639.61 7 1667.5 7C1695.39 7 1718 29.6096 1718 57.5C1718 29.6096 1740.61 7 1768.5 7C1796.39 7 1819 29.6096 1819 57.5C1819 29.6096 1841.61 7 1869.5 7Z" fill="#112921"/>
</svg>
