<svg width="503" height="406" viewBox="0 0 503 406" fill="none" xmlns="http://www.w3.org/2000/svg">
<path d="M400.529 1.77626C405.964 0.79537 411.165 4.40605 412.146 9.84097L500.61 499.951C501.591 505.386 497.98 510.587 492.545 511.568L131.722 576.695C126.287 577.676 121.086 574.065 120.105 568.631L31.6415 78.5209C30.6606 73.086 34.2713 67.8847 39.7062 66.9037L400.529 1.77626ZM129.725 286.804L425.993 233.64L391.985 44.1206L95.717 97.2845L129.725 286.804Z" fill="#4D6443"/>
<path d="M27.7386 89.2106C37.2194 87.5764 48.5785 89.0284 58.7027 93.7821C61.3722 95.0358 62.5199 98.2165 61.2664 100.886C60.0127 103.556 56.832 104.703 54.1623 103.45C45.9203 99.58 36.7731 98.4922 29.5527 99.7368C22.0735 101.026 18.2998 104.376 17.4641 107.839C17.0561 109.531 17.3791 110.297 17.6124 110.676C17.9258 111.183 18.6548 111.876 20.2001 112.498C23.4045 113.787 28.2859 114.007 32.4712 113.252L37.7268 112.303L39.624 122.814L34.3685 123.763C28.9188 124.747 21.8588 124.678 16.2143 122.408C13.3355 121.25 10.4124 119.346 8.52254 116.284C6.55293 113.091 6.12107 109.314 7.08142 105.334C9.39432 95.7481 18.5169 90.8002 27.7386 89.2106Z" fill="black"/>
<path d="M51.1585 218.959C60.6393 217.325 71.9984 218.777 82.1226 223.53C84.7921 224.784 85.9398 227.965 84.6863 230.635C83.4326 233.304 80.2519 234.452 77.5823 233.198C69.3402 229.328 60.193 228.241 52.9726 229.485C45.4935 230.774 41.7197 234.124 40.884 237.588C40.476 239.279 40.799 240.046 41.0324 240.424C41.3457 240.931 42.0747 241.625 43.62 242.246C46.8244 243.535 51.7059 243.756 55.8911 243L61.1467 242.052L63.044 252.563L57.7884 253.511C52.3387 254.495 45.2788 254.426 39.6343 252.156C36.7554 250.998 33.8323 249.095 31.9425 246.032C29.9728 242.84 29.541 239.063 30.5013 235.082C32.8142 225.497 41.9368 220.549 51.1585 218.959Z" fill="black"/>
<path d="M74.6839 349.298C84.1647 347.663 95.5238 349.115 105.648 353.869C108.318 355.123 109.465 358.303 108.212 360.973C106.958 363.643 103.777 364.79 101.108 363.537C92.8656 359.667 83.7184 358.579 76.498 359.824C69.0189 361.113 65.2451 364.463 64.4094 367.926C64.0014 369.618 64.3244 370.384 64.5578 370.763C64.8711 371.27 65.6001 371.963 67.1454 372.585C70.3498 373.874 75.2313 374.094 79.4165 373.339L84.6721 372.39L86.5694 382.901L81.3138 383.85C75.8641 384.834 68.8041 384.765 63.1596 382.495C60.2808 381.337 57.3577 379.433 55.4678 376.37C53.4982 373.178 53.0664 369.401 54.0267 365.421C56.3396 355.835 65.4622 350.887 74.6839 349.298Z" fill="black"/>
<path d="M35.6019 132.767C45.0826 131.133 56.4418 132.585 66.566 137.339C69.2355 138.593 70.3832 141.773 69.1297 144.443C67.8759 147.112 64.6953 148.26 62.0256 147.007C53.7836 143.137 44.6364 142.049 37.416 143.294C29.9368 144.583 26.1631 147.933 25.3274 151.396C24.9194 153.087 25.2424 153.854 25.4757 154.232C25.789 154.74 26.5181 155.433 28.0634 156.055C31.2678 157.343 36.1492 157.564 40.3345 156.809L45.5901 155.86L47.4873 166.371L42.2317 167.32C36.7821 168.303 29.7221 168.235 24.0776 165.965C21.1988 164.807 18.2757 162.903 16.3858 159.84C14.4162 156.648 13.9843 152.871 14.9447 148.891C17.2576 139.305 26.3802 134.357 35.6019 132.767Z" fill="black"/>
<path d="M59.0199 262.516C68.5006 260.882 79.8597 262.334 89.9839 267.087C92.6535 268.341 93.8012 271.522 92.5476 274.191C91.2939 276.861 88.1133 278.009 85.4436 276.755C77.2016 272.885 68.0543 271.797 60.834 273.042C53.3548 274.331 49.581 277.681 48.7453 281.145C48.3374 282.836 48.6604 283.603 48.8937 283.981C49.207 284.488 49.936 285.182 51.4813 285.803C54.6858 287.092 59.5672 287.312 63.7525 286.557L69.0081 285.608L70.9053 296.12L65.6497 297.068C60.2 298.052 53.1401 297.983 47.4956 295.713C44.6167 294.555 41.6937 292.652 39.8038 289.589C37.8342 286.397 37.4023 282.62 38.3627 278.639C40.6756 269.053 49.7982 264.105 59.0199 262.516Z" fill="black"/>
<path d="M82.5472 392.854C92.028 391.22 103.387 392.672 113.511 397.426C116.181 398.68 117.329 401.86 116.075 404.53C114.821 407.199 111.641 408.347 108.971 407.094C100.729 403.224 91.5817 402.136 84.3613 403.381C76.8821 404.67 73.1084 408.019 72.2727 411.483C71.8647 413.174 72.1877 413.941 72.421 414.319C72.7343 414.827 73.4634 415.52 75.0087 416.142C78.2131 417.43 83.0945 417.651 87.2798 416.896L92.5354 415.947L94.4326 426.458L89.177 427.407C83.7274 428.39 76.6674 428.322 71.0229 426.052C68.1441 424.894 65.221 422.99 63.3311 419.927C61.3615 416.735 60.9297 412.958 61.89 408.978C64.2029 399.392 73.3255 394.444 82.5472 392.854Z" fill="black"/>
<path d="M43.3792 175.863C52.86 174.229 64.2191 175.681 74.3433 180.435C77.0128 181.688 78.1605 184.869 76.907 187.539C75.6533 190.208 72.4726 191.356 69.803 190.102C61.5609 186.233 52.4137 185.145 45.1933 186.389C37.7142 187.679 33.9404 191.028 33.1047 194.492C32.6967 196.183 33.0197 196.95 33.2531 197.328C33.5664 197.836 34.2954 198.529 35.8407 199.151C39.0451 200.439 43.9266 200.66 48.1118 199.904L53.3674 198.956L55.2647 209.467L50.0091 210.416C44.5594 211.399 37.4995 211.331 31.855 209.061C28.9761 207.903 26.053 205.999 24.1632 202.936C22.1936 199.744 21.7617 195.967 22.722 191.987C25.0349 182.401 34.1575 177.453 43.3792 175.863Z" fill="black"/>
<path d="M66.7992 305.612C76.2799 303.977 87.639 305.429 97.7632 310.183C100.433 311.437 101.58 314.617 100.327 317.287C99.0732 319.957 95.8926 321.104 93.2229 319.851C84.9809 315.981 75.8336 314.893 68.6132 316.138C61.1341 317.427 57.3603 320.777 56.5246 324.24C56.1167 325.932 56.4397 326.698 56.673 327.077C56.9863 327.584 57.7153 328.277 59.2606 328.899C62.465 330.188 67.3465 330.408 71.5318 329.653L76.7874 328.704L78.6846 339.215L73.429 340.164C67.9793 341.148 60.9194 341.079 55.2749 338.809C52.396 337.651 49.473 335.747 47.5831 332.685C45.6135 329.492 45.1816 325.715 46.142 321.735C48.4549 312.149 57.5775 307.201 66.7992 305.612Z" fill="black"/>
</svg>
