<svg width="428" height="460" viewBox="0 0 428 460" fill="none" xmlns="http://www.w3.org/2000/svg">
<path d="M302.424 425.265L39.233 354.743L122.919 42.4243L386.11 112.946L302.424 425.265ZM133.339 64.3975L80.3015 262.338L312.87 324.654L365.908 126.714L133.339 64.3975Z" fill="#EBE2E2"/>
<path d="M344.709 65.7871L336.532 67.9788L341.262 72.7089L331.723 75.2648L336.754 80.2949L332.96 81.3124L338.127 86.4791L329.669 88.7462L336.331 95.4074L325.553 98.2964L332.901 105.645L170.309 62.0784L170.321 62.0341L178.719 59.7845L172.571 53.636L172.622 53.4474L181.3 51.1222L175.538 45.3592L181.729 43.7009L176.606 38.5774L176.612 38.5547L185.569 36.1554L179.012 29.5982L179.043 29.4832L188.281 27.0087L183.844 22.5713L344.737 65.6824L344.709 65.7871Z" fill="#CBB99D"/>
</svg>
