<svg width="71" height="46" viewBox="0 0 71 46" fill="none" xmlns="http://www.w3.org/2000/svg">
<path d="M65.0209 6.13916C63.2092 5.95856 60.9751 6.85819 59.0329 7.92773C59.9382 3.35364 60.291 0.0707632 60.291 0.0707632L0 -0.00012207C0 -0.00012207 2.21164 20.6007 9.79288 30.5382C13.8055 35.7975 16.8818 37.1208 18.1252 37.4522L42.1658 37.5231C43.408 37.1912 46.4849 35.8679 50.4975 30.6091C50.5538 30.5371 50.6055 30.4639 50.6596 30.3914C50.8889 30.6767 51.1659 30.9204 51.4782 31.1115C52.82 31.9397 57.4571 33.8683 59.8966 31.9397C62.3361 30.011 69.7795 21.592 70.2678 17.1772C70.7562 12.7623 69.4132 6.69165 65.0209 6.13916ZM65.7523 17.8619C65.4603 20.5011 61.0122 25.5315 59.5534 26.6854C58.0945 27.8393 55.3236 26.6854 54.5213 26.1909C54.1427 25.961 53.8582 25.6038 53.7191 25.1832C55.498 21.2734 56.8962 17.2013 57.8942 13.0233C59.2259 12.1524 61.1518 11.1183 62.6162 11.2646C65.242 11.5949 66.0443 15.2232 65.7528 17.8619H65.7523Z" fill="#8B6341"/>
<path d="M0.0117188 39.3903C3.46336 43.1817 16.3743 45.9999 31.7758 45.9999C47.1774 45.9999 60.0883 43.1817 63.54 39.3903H0.0117188Z" fill="#8B6341"/>
<path d="M22.4043 9.31506L38.9831 28.4152" stroke="white" stroke-width="3" stroke-linecap="round"/>
<path d="M38.6992 9.11658L22.6898 28.6138" stroke="white" stroke-width="3" stroke-linecap="round"/>
</svg>
